HIERARCHY
ROOT Hips
{
	OFFSET 0.000000 0.000000 0.000000
	CHANNELS 6 Xposition Yposition Zposition Zrotation Yrotation Xrotation 
	JOINT LowerBack
	{
		OFFSET 0.000000 0.000000 0.000000
		CHANNELS 3 Zrotation Yrotation Xrotation
		JOINT Spine
		{
			OFFSET 0.028270 2.035590 -0.193380
			CHANNELS 3 Zrotation Yrotation Xrotation
			JOINT Spine1
			{
				OFFSET 0.056720 2.048850 -0.042750
				CHANNELS 3 Zrotation Yrotation Xrotation
				JOINT Neck
				{
					OFFSET 0.000000 0.000000 0.000000
					CHANNELS 3 Zrotation Yrotation Xrotation
					JOINT Neck1
					{
						OFFSET -0.054170 1.746240 0.172020
						CHANNELS 3 Zrotation Yrotation Xrotation
						JOINT Head
						{
							OFFSET 0.104070 1.761360 -0.123970
							CHANNELS 3 Zrotation Yrotation Xrotation
							End Site
							{
								OFFSET 0.000000 0.000000 0.000000
							}
						}
					}
				}
				JOINT LeftShoulder
				{
					OFFSET 0.000000 0.000000 0.000000
					CHANNELS 3 Zrotation Yrotation Xrotation
					JOINT LeftArm
					{
						OFFSET 3.362410 1.200890 -0.311210
						CHANNELS 3 Zrotation Yrotation Xrotation
						JOINT LeftForeArm
						{
							OFFSET 4.983000 -0.000000 -0.000000
							CHANNELS 3 Zrotation Yrotation Xrotation
							JOINT LeftHand
							{
								OFFSET 3.483560 -0.000000 -0.000000
								CHANNELS 3 Zrotation Yrotation Xrotation
								JOINT LeftFingerBase
								{
									OFFSET 0.000000 0.000000 0.000000
									CHANNELS 3 Zrotation Yrotation Xrotation
									JOINT LeftHandIndex1
									{
										OFFSET 0.715260 -0.000000 -0.000000
										CHANNELS 3 Zrotation Yrotation Xrotation
										End Site
										{
											OFFSET 0.000000 0.000000 0.000000
										}
									}
								}
								JOINT LThumb
								{
									OFFSET 0.000000 0.000000 0.000000
									CHANNELS 3 Zrotation Yrotation Xrotation
									End Site
									{
										OFFSET 0.000000 0.000000 0.000000
									}
								}
							}
						}
					}
				}
				JOINT RightShoulder
				{
					OFFSET 0.000000 0.000000 0.000000
					CHANNELS 3 Zrotation Yrotation Xrotation
					JOINT RightArm
					{
						OFFSET -3.136600 1.374050 -0.404650
						CHANNELS 3 Zrotation Yrotation Xrotation
						JOINT RightForeArm
						{
							OFFSET -5.241900 -0.000000 -0.000000
							CHANNELS 3 Zrotation Yrotation Xrotation
							JOINT RightHand
							{
								OFFSET -3.444170 -0.000000 -0.000000
								CHANNELS 3 Zrotation Yrotation Xrotation
								JOINT RightFingerBase
								{
									OFFSET 0.000000 0.000000 0.000000
									CHANNELS 3 Zrotation Yrotation Xrotation
									JOINT RightHandIndex1
									{
										OFFSET -0.622530 -0.000000 -0.000000
										CHANNELS 3 Zrotation Yrotation Xrotation
										End Site
										{
											OFFSET 0.000000 0.000000 0.000000
										}
									}
								}
								JOINT RThumb
								{
									OFFSET 0.000000 0.000000 0.000000
									CHANNELS 3 Zrotation Yrotation Xrotation
									End Site
									{
										OFFSET 0.000000 0.000000 0.000000
									}
								}
							}
						}
					}
				}
			}
		}
	}
}
}
MOTION
Frames: 9
Frame Time: 0.008333
-20.510962 16.074548 -3.748442 -158.752749 88.412997 -130.518924 10.241278 -2.825762 0.551599 1.022619 -3.469848 -2.646172 -8.015089 -3.495854 1.264127 9.309812 -6.510854 -7.278425 -4.393301 -0.319085 -0.121305 0.000000 0.000000 0.000000 -3.819096 4.170492 3.577296 -37.367724 -17.746595 12.648951 -1.926953 -66.625032 0.023558 -5.161169 -0.436537 0.030529 -0.103916 0.219214 0.000000 0.000000 0.000000 0.000000 0.000000 0.000000 0.000000 19.187597 -5.700252 2.025106 61.636092 -8.122757 -14.855533 3.293391 24.535419 0.011647 -1.288523 7.663623 -0.093397 0.096579 -0.091136 -0.000000 0.000000 0.000000 0.000000 0.000000 0.000000 0.000000 
-20.285081 16.103142 -3.715368 -156.863475 88.335946 -128.644390 10.512554 -2.765537 0.522427 1.074364 -3.428880 -2.674057 -8.013130 -3.461251 1.199945 9.269511 -5.904355 -7.120830 -4.461099 -0.324876 -0.080955 0.000000 0.000000 0.000000 -3.932119 4.232602 3.578732 -37.965769 -16.985525 12.949223 -1.970254 -66.202539 0.022707 -4.993691 -0.531493 0.033355 -0.108952 0.213650 0.000000 0.000000 0.000000 0.000000 0.000000 0.000000 0.000000 19.346961 -5.117648 2.033820 61.527835 -6.954847 -15.034143 3.305181 23.422110 0.011358 -1.386988 7.720565 -0.100804 0.095200 -0.092404 -0.000000 0.000000 0.000000 0.000000 0.000000 0.000000 0.000000 
-20.060706 16.135393 -3.680232 -155.376799 88.296247 -127.179525 10.706512 -2.701989 0.494369 1.109654 -3.380615 -2.702331 -8.007252 -3.419586 1.133963 9.245342 -5.261370 -6.941718 -4.525627 -0.330531 -0.034297 0.000000 0.000000 0.000000 -4.030164 4.291637 3.577772 -38.622880 -16.178151 13.304492 -2.019418 -65.674149 0.021773 -4.817342 -0.624110 0.035679 -0.113914 0.207026 0.000000 0.000000 0.000000 0.000000 0.000000 0.000000 0.000000 19.510725 -4.500718 2.039909 61.458026 -5.724050 -15.228814 3.316249 22.285282 0.011099 -1.417265 7.768635 -0.103411 0.093410 -0.093835 -0.000000 0.000000 0.000000 0.000000 0.000000 0.000000 0.000000 
-19.838081 16.170947 -3.643084 -154.235124 88.302463 -126.065936 10.814263 -2.633320 0.466325 1.126680 -3.322834 -2.730625 -7.996321 -3.368534 1.068042 9.234781 -4.595066 -6.744905 -4.585124 -0.335903 0.017691 0.000000 0.000000 0.000000 -4.111559 4.349198 3.574428 -39.331649 -15.336982 13.709767 -2.074485 -65.035229 0.020805 -4.646591 -0.710190 0.037599 -0.118572 0.199339 0.000000 0.000000 0.000000 0.000000 0.000000 0.000000 0.000000 19.672083 -3.859471 2.043300 61.431685 -4.435153 -15.435300 3.326076 21.158062 0.010887 -1.375818 7.809938 -0.100917 0.091247 -0.095524 -0.000000 0.000000 0.000000 0.000000 0.000000 0.000000 0.000000 
-19.617444 16.209582 -3.604179 -153.361650 88.359092 -125.227358 10.832654 -2.558237 0.439756 1.125278 -3.253845 -2.757954 -7.978355 -3.306302 1.004332 9.233403 -3.926425 -6.536769 -4.637536 -0.340814 0.073252 0.000000 0.000000 0.000000 -4.173220 4.404297 3.567817 -40.094063 -14.469062 14.152502 -2.135240 -64.283514 0.019846 -4.497865 -0.785186 0.038913 -0.122651 0.190638 0.000000 0.000000 0.000000 0.000000 0.000000 0.000000 0.000000 19.821346 -3.211841 2.044311 61.450957 -3.082312 -15.625581 3.334386 20.069508 0.010741 -1.269847 7.851982 -0.094022 0.088811 -0.097565 -0.000000 0.000000 0.000000 0.000000 0.000000 0.000000 0.000000 
-19.399337 16.251123 -3.563915 -152.661368 88.467228 -124.569607 10.763614 -2.475619 0.417924 1.106441 -3.172213 -2.783095 -7.951803 -3.231369 0.944410 9.235920 -3.270504 -6.323731 -4.681335 -0.345119 0.130498 0.000000 0.000000 0.000000 -4.216640 4.461932 3.558225 -40.908530 -13.590769 14.621610 -2.202061 -63.413945 0.018923 -4.383641 -0.844487 0.039720 -0.126027 0.181033 0.000000 0.000000 0.000000 0.000000 0.000000 0.000000 0.000000 19.949049 -2.568816 2.042961 61.517496 -1.669496 -15.770573 3.340902 19.060161 0.010677 -1.103800 7.898904 -0.082725 0.086159 -0.100022 -0.000000 0.000000 0.000000 0.000000 0.000000 0.000000 0.000000 
-19.183682 16.295524 -3.522719 -152.027432 88.625266 -123.987767 10.613842 -2.384418 0.404652 1.072054 -3.076772 -2.805880 -7.915889 -3.142652 0.885652 9.235875 -2.620790 -6.106709 -4.716179 -0.348803 0.188988 0.000000 0.000000 0.000000 -4.247367 4.527090 3.548601 -41.769128 -12.717334 15.108610 -2.275777 -62.423574 0.018045 -4.311764 -0.883528 0.040119 -0.128748 0.170688 0.000000 0.000000 0.000000 0.000000 0.000000 0.000000 0.000000 20.045400 -1.918211 2.039320 61.637419 -0.234399 -15.862319 3.344995 18.194345 0.010703 -0.868958 7.946979 -0.066524 0.083208 -0.102919 -0.000000 0.000000 0.000000 0.000000 0.000000 0.000000 0.000000 
-18.970789 16.342740 -3.481227 -151.305908 88.827820 -123.328006 10.392932 -2.284492 0.404685 1.025214 -2.967346 -2.824302 -7.867877 -3.039785 0.831568 9.227346 -2.012079 -5.897811 -4.740017 -0.351653 0.245248 0.000000 0.000000 0.000000 -4.263844 4.599176 3.536476 -42.688970 -11.855216 15.588895 -2.355980 -61.309540 0.017217 -4.291364 -0.900607 0.040109 -0.130641 0.159809 0.000000 0.000000 0.000000 0.000000 0.000000 0.000000 0.000000 20.099387 -1.292733 2.033736 61.801525 1.247121 -15.813834 3.347857 17.494018 0.010835 -0.587632 8.006990 -0.046921 0.080150 -0.106277 -0.000000 0.000000 0.000000 0.000000 0.000000 0.000000 0.000000 
-18.760697 16.392821 -3.440018 -150.333650 89.068625 -122.427377 10.112144 -2.175765 0.420519 0.968740 -2.844145 -2.839256 -7.807299 -2.923137 0.776951 9.204560 -1.430101 -5.694917 -4.753200 -0.353731 0.299715 0.000000 0.000000 0.000000 -4.273317 4.675743 3.525228 -43.664102 -11.006318 16.047755 -2.442874 -60.074880 0.016422 -4.322279 -0.892503 0.039690 -0.131846 0.148613 0.000000 0.000000 0.000000 0.000000 0.000000 0.000000 0.000000 20.102138 -0.673642 2.026490 62.011850 2.727183 -15.606998 3.349336 17.025484 0.011081 -0.249246 8.070772 -0.022915 0.076860 -0.110060 -0.000000 0.000000 0.000000 0.000000 0.000000 0.000000 0.000000 
